<?xml version="1.0" encoding="utf-8"?>
<!-- Generator: Adobe Illustrator 25.2.1, SVG Export Plug-In . SVG Version: 6.00 Build 0)  -->
<svg version="1.1" id="Layer_1" xmlns="http://www.w3.org/2000/svg" xmlns:xlink="http://www.w3.org/1999/xlink" x="0px" y="0px"
	 viewBox="0 0 83.3 94.6" style="enable-background:new 0 0 83.3 94.6;" xml:space="preserve">
<style type="text/css">
	.st0{fill:#FFFFFF;}
	.st1{fill:#AAE900;}
</style>
<path class="st0" d="M68.9,72.1c2.2-3.1,3.8-6.4,4.8-9.9l8,2.3c-1.3,4.4-3.3,8.6-6,12.5L68.9,72.1z"/>
<path class="st0" d="M58,91.3l-3.3-7.7c3.4-1.5,6.5-3.5,9.3-6l5.6,6.2C66.2,86.9,62.2,89.4,58,91.3z"/>
<path class="st0" d="M74.9,54.9c0.2-3.7-0.3-7.4-1.3-11l8-2.3c1.3,4.5,1.9,9.1,1.7,13.7L74.9,54.9z"/>
<path class="st0" d="M35.3,94.1l1.3-8.2c3.7,0.6,7.4,0.5,11-0.1l1.5,8.2C44.6,94.8,39.9,94.8,35.3,94.1z"/>
<path class="st1" d="M10,25.8c0.6-0.7,1.1-1.3,1.7-1.9c0.2-0.2,0.3-0.3,0.5-0.5c0.5-0.5,1-1,1.5-1.4c0.1-0.1,0.3-0.2,0.4-0.4
	c0.6-0.6,1.3-1.1,1.9-1.6c0.1-0.1,0.3-0.2,0.4-0.3c0.6-0.5,1.2-0.9,1.8-1.3c0.1-0.1,0.2-0.1,0.2-0.2c5.6-3.8,11.9-6.2,18.6-7l0,0.2
	c0.1,0,0.2,0,0.4,0L37.5,0l25.8,16.6l-26,15.6l0.1-12.4c-6.6,0.7-12.8,3.5-17.9,8.1c-0.1,0.1-0.1,0.1-0.2,0.2
	c-0.4,0.4-0.9,0.8-1.3,1.2c-0.1,0.1-0.3,0.3-0.4,0.4c-0.5,0.5-0.9,1-1.4,1.5C4.4,45.2,6,66.3,20,78.2c2.9,2.4,6,4.4,9.5,5.7
	l-3.1,7.7c-4.3-1.7-8.3-4.1-11.8-7.1C-2.9,69.6-4.9,43.3,10,25.8z"/>
</svg>
